<svg width="22" height="22" viewBox="0 0 22 22" fill="none" xmlns="http://www.w3.org/2000/svg">
<path d="M6 11.5574L9.2967 15L16 8" stroke="#1B365D" stroke-width="2" stroke-linecap="round" stroke-linejoin="round"/>
<path d="M11 1.39648C5.68477 1.39648 1.375 5.70625 1.375 11.0215C1.375 16.3367 5.68477 20.6465 11 20.6465C16.3152 20.6465 20.625 16.3367 20.625 11.0215C20.625 5.70625 16.3152 1.39648 11 1.39648ZM11 19.0137C6.58711 19.0137 3.00781 15.4344 3.00781 11.0215C3.00781 6.60859 6.58711 3.0293 11 3.0293C15.4129 3.0293 18.9922 6.60859 18.9922 11.0215C18.9922 15.4344 15.4129 19.0137 11 19.0137Z" fill="#1B365D"/>
</svg>
