<svg width="20" height="18" viewBox="0 0 20 18" fill="none" xmlns="http://www.w3.org/2000/svg">
<path d="M18 2H14.83L13 0H7L5.17 2H2C0.9 2 0 2.9 0 4V16C0 17.1 0.9 18 2 18H18C19.1 18 20 17.1 20 16V4C20 2.9 19.1 2 18 2ZM10 15C7.24 15 5 12.76 5 10H3L5.5 7.5L8 10H6C6 12.21 7.79 14 10 14C10.58 14 11.13 13.87 11.62 13.65L12.36 14.39C11.65 14.76 10.86 15 10 15ZM14.5 12.5L12 10H14C14 7.79 12.21 6 10 6C9.42 6 8.87 6.13 8.38 6.35L7.64 5.62C8.35 5.24 9.14 5 10 5C12.76 5 15 7.24 15 10H17L14.5 12.5Z" fill="white"/>
</svg>
