<svg width="24" height="24" viewBox="0 0 24 24" fill="none" xmlns="http://www.w3.org/2000/svg">
<path fill-rule="evenodd" clip-rule="evenodd" d="M11.9996 2.46802C10.0526 2.46802 8.46832 4.05234 8.46832 6.00007C8.46832 7.94706 10.0526 9.53138 11.9996 9.53138C13.9466 9.53138 15.5317 7.94706 15.5317 6.00007C15.5317 4.05234 13.9466 2.46802 11.9996 2.46802ZM11.9996 10.9997C9.24286 10.9997 7 8.75684 7 6.00007C7 3.24256 9.24286 0.999702 11.9996 0.999702C14.7564 0.999702 17 3.24256 17 6.00007C17 8.75684 14.7564 10.9997 11.9996 10.9997Z" fill="white"/>
<path d="M3.75 21C3.75 16.4437 7.44365 12.75 12 12.75C16.5563 12.75 20.25 16.4437 20.25 21V22.25H3.75V21Z" stroke="white" stroke-width="1.5"/>
</svg>
